<?xml version="1.0" encoding="UTF-8"?>
<!--Generator: Apple Native CoreSVG 175-->
<!DOCTYPE svg
PUBLIC "-//W3C//DTD SVG 1.1//EN"
       "http://www.w3.org/Graphics/SVG/1.1/DTD/svg11.dtd">
<svg version="1.1" xmlns="http://www.w3.org/2000/svg" xmlns:xlink="http://www.w3.org/1999/xlink" width="3300" height="2200">
 <!--glyph: "uni1001FA.medium", point size: 100.0, font version: "17.3d3e1", template writer version: "65.1"-->
 <style>.hierarchical-0:secondary {fill:#4D4D4D}
.hierarchical-1:primary {fill:#212121}

.SFSymbolsPreview212121 {fill:#212121;opacity:1.0}
.SFSymbolsPreview4D4D4D {fill:#4D4D4D;opacity:1.0}
</style>
 <g id="Notes">
  <rect height="2200" id="artboard" style="fill:white;opacity:1" width="3300" x="0" y="0"/>
  <line style="fill:none;stroke:black;opacity:1;stroke-width:0.5;" x1="263" x2="3036" y1="292" y2="292"/>
  <text style="stroke:none;fill:black;font-family:sans-serif;font-size:13;font-weight:bold;" transform="matrix(1 0 0 1 263 322)">Weight/Scale Variations</text>
  <text style="stroke:none;fill:black;font-family:sans-serif;font-size:13;text-anchor:middle;" transform="matrix(1 0 0 1 559.711 322)">Ultralight</text>
  <text style="stroke:none;fill:black;font-family:sans-serif;font-size:13;text-anchor:middle;" transform="matrix(1 0 0 1 856.422 322)">Thin</text>
  <text style="stroke:none;fill:black;font-family:sans-serif;font-size:13;text-anchor:middle;" transform="matrix(1 0 0 1 1153.13 322)">Light</text>
  <text style="stroke:none;fill:black;font-family:sans-serif;font-size:13;text-anchor:middle;" transform="matrix(1 0 0 1 1449.84 322)">Regular</text>
  <text style="stroke:none;fill:black;font-family:sans-serif;font-size:13;text-anchor:middle;" transform="matrix(1 0 0 1 1746.56 322)">Medium</text>
  <text style="stroke:none;fill:black;font-family:sans-serif;font-size:13;text-anchor:middle;" transform="matrix(1 0 0 1 2043.27 322)">Semibold</text>
  <text style="stroke:none;fill:black;font-family:sans-serif;font-size:13;text-anchor:middle;" transform="matrix(1 0 0 1 2339.98 322)">Bold</text>
  <text style="stroke:none;fill:black;font-family:sans-serif;font-size:13;text-anchor:middle;" transform="matrix(1 0 0 1 2636.69 322)">Heavy</text>
  <text style="stroke:none;fill:black;font-family:sans-serif;font-size:13;text-anchor:middle;" transform="matrix(1 0 0 1 2933.4 322)">Black</text>
  <line style="fill:none;stroke:black;opacity:1;stroke-width:0.5;" x1="263" x2="3036" y1="1903" y2="1903"/>
  <g transform="matrix(1 0 0 1 263 1933)">
   <path d="M9.24805 0.830078Q10.8691 0.830078 12.2949 0.214844Q13.7207-0.400391 14.8096-1.49414Q15.8984-2.58789 16.5186-4.01367Q17.1387-5.43945 17.1387-7.05078Q17.1387-8.66211 16.5186-10.0879Q15.8984-11.5137 14.8047-12.6074Q13.7109-13.7012 12.2852-14.3164Q10.8594-14.9316 9.23828-14.9316Q7.62695-14.9316 6.20117-14.3164Q4.77539-13.7012 3.69141-12.6074Q2.60742-11.5137 1.9873-10.0879Q1.36719-8.66211 1.36719-7.05078Q1.36719-5.43945 1.9873-4.01367Q2.60742-2.58789 3.69629-1.49414Q4.78516-0.400391 6.21094 0.214844Q7.63672 0.830078 9.24805 0.830078ZM9.24805-0.654297Q7.91992-0.654297 6.7627-1.14746Q5.60547-1.64062 4.73145-2.51953Q3.85742-3.39844 3.36426-4.56055Q2.87109-5.72266 2.87109-7.05078Q2.87109-8.37891 3.35938-9.54102Q3.84766-10.7031 4.72168-11.582Q5.5957-12.4609 6.75293-12.9541Q7.91016-13.4473 9.23828-13.4473Q10.5762-13.4473 11.7334-12.9541Q12.8906-12.4609 13.7695-11.582Q14.6484-10.7031 15.1465-9.54102Q15.6445-8.37891 15.6445-7.05078Q15.6445-5.72266 15.1514-4.56055Q14.6582-3.39844 13.7842-2.51953Q12.9102-1.64062 11.748-1.14746Q10.5859-0.654297 9.24805-0.654297ZM5.6543-7.05078Q5.6543-6.72852 5.85938-6.52832Q6.06445-6.32812 6.40625-6.32812L8.51562-6.32812L8.51562-4.20898Q8.51562-3.88672 8.71094-3.67676Q8.90625-3.4668 9.23828-3.4668Q9.56055-3.4668 9.77051-3.67676Q9.98047-3.88672 9.98047-4.20898L9.98047-6.32812L12.0898-6.32812Q12.4219-6.32812 12.627-6.52832Q12.832-6.72852 12.832-7.05078Q12.832-7.38281 12.627-7.58789Q12.4219-7.79297 12.0898-7.79297L9.98047-7.79297L9.98047-9.90234Q9.98047-10.2344 9.77051-10.4443Q9.56055-10.6543 9.23828-10.6543Q8.90625-10.6543 8.71094-10.4443Q8.51562-10.2344 8.51562-9.90234L8.51562-7.79297L6.40625-7.79297Q6.06445-7.79297 5.85938-7.58789Q5.6543-7.38281 5.6543-7.05078Z"/>
  </g>
  <g transform="matrix(1 0 0 1 281.867 1933)">
   <path d="M11.709 2.91016Q13.75 2.91016 15.5518 2.12891Q17.3535 1.34766 18.7305-0.0292969Q20.1074-1.40625 20.8887-3.20801Q21.6699-5.00977 21.6699-7.05078Q21.6699-9.0918 20.8887-10.8936Q20.1074-12.6953 18.7305-14.0723Q17.3535-15.4492 15.5469-16.2305Q13.7402-17.0117 11.6992-17.0117Q9.6582-17.0117 7.85645-16.2305Q6.05469-15.4492 4.68262-14.0723Q3.31055-12.6953 2.5293-10.8936Q1.74805-9.0918 1.74805-7.05078Q1.74805-5.00977 2.5293-3.20801Q3.31055-1.40625 4.6875-0.0292969Q6.06445 1.34766 7.86621 2.12891Q9.66797 2.91016 11.709 2.91016ZM11.709 1.25Q9.98047 1.25 8.47656 0.605469Q6.97266-0.0390625 5.83496-1.17676Q4.69727-2.31445 4.05762-3.81836Q3.41797-5.32227 3.41797-7.05078Q3.41797-8.7793 4.05762-10.2832Q4.69727-11.7871 5.83008-12.9297Q6.96289-14.0723 8.4668-14.7119Q9.9707-15.3516 11.6992-15.3516Q13.4277-15.3516 14.9316-14.7119Q16.4355-14.0723 17.5781-12.9297Q18.7207-11.7871 19.3652-10.2832Q20.0098-8.7793 20.0098-7.05078Q20.0098-5.32227 19.3701-3.81836Q18.7305-2.31445 17.5928-1.17676Q16.4551-0.0390625 14.9463 0.605469Q13.4375 1.25 11.709 1.25ZM7.17773-7.05078Q7.17773-6.69922 7.41211-6.47461Q7.64648-6.25 8.01758-6.25L10.8887-6.25L10.8887-3.36914Q10.8887-2.99805 11.1133-2.76855Q11.3379-2.53906 11.6895-2.53906Q12.0605-2.53906 12.29-2.76855Q12.5195-2.99805 12.5195-3.36914L12.5195-6.25L15.4004-6.25Q15.7715-6.25 16.001-6.47461Q16.2305-6.69922 16.2305-7.05078Q16.2305-7.42188 16.001-7.65137Q15.7715-7.88086 15.4004-7.88086L12.5195-7.88086L12.5195-10.752Q12.5195-11.1328 12.29-11.3623Q12.0605-11.5918 11.6895-11.5918Q11.3379-11.5918 11.1133-11.3574Q10.8887-11.123 10.8887-10.752L10.8887-7.88086L8.01758-7.88086Q7.63672-7.88086 7.40723-7.65137Q7.17773-7.42188 7.17773-7.05078Z"/>
  </g>
  <g transform="matrix(1 0 0 1 305.646 1933)">
   <path d="M14.9707 5.66406Q17.0605 5.66406 18.96 5.01465Q20.8594 4.36523 22.4512 3.19336Q24.043 2.02148 25.2197 0.429688Q26.3965-1.16211 27.0459-3.06641Q27.6953-4.9707 27.6953-7.05078Q27.6953-9.14062 27.0459-11.04Q26.3965-12.9395 25.2197-14.5312Q24.043-16.123 22.4512-17.2998Q20.8594-18.4766 18.9551-19.126Q17.0508-19.7754 14.9609-19.7754Q12.8711-19.7754 10.9717-19.126Q9.07227-18.4766 7.48535-17.2998Q5.89844-16.123 4.72168-14.5312Q3.54492-12.9395 2.90039-11.04Q2.25586-9.14062 2.25586-7.05078Q2.25586-4.9707 2.90527-3.06641Q3.55469-1.16211 4.72656 0.429688Q5.89844 2.02148 7.49023 3.19336Q9.08203 4.36523 10.9814 5.01465Q12.8809 5.66406 14.9707 5.66406ZM14.9707 3.84766Q13.1641 3.84766 11.5283 3.2959Q9.89258 2.74414 8.53516 1.74805Q7.17773 0.751953 6.17676-0.610352Q5.17578-1.97266 4.62891-3.6084Q4.08203-5.24414 4.08203-7.05078Q4.08203-8.86719 4.62891-10.5029Q5.17578-12.1387 6.17188-13.501Q7.16797-14.8633 8.52539-15.8594Q9.88281-16.8555 11.5186-17.4023Q13.1543-17.9492 14.9609-17.9492Q16.7773-17.9492 18.4131-17.4023Q20.0488-16.8555 21.4111-15.8594Q22.7734-14.8633 23.7695-13.501Q24.7656-12.1387 25.3174-10.5029Q25.8691-8.86719 25.8691-7.05078Q25.8789-5.24414 25.332-3.6084Q24.7852-1.97266 23.7842-0.610352Q22.7832 0.751953 21.4209 1.74805Q20.0586 2.74414 18.4229 3.2959Q16.7871 3.84766 14.9707 3.84766ZM9.19922-7.05078Q9.19922-6.66992 9.45801-6.4209Q9.7168-6.17188 10.1172-6.17188L14.0625-6.17188L14.0625-2.2168Q14.0625-1.81641 14.3115-1.55762Q14.5605-1.29883 14.9512-1.29883Q15.3516-1.29883 15.6104-1.55273Q15.8691-1.80664 15.8691-2.2168L15.8691-6.17188L19.8242-6.17188Q20.2246-6.17188 20.4785-6.4209Q20.7324-6.66992 20.7324-7.05078Q20.7324-7.46094 20.4785-7.71484Q20.2246-7.96875 19.8242-7.96875L15.8691-7.96875L15.8691-11.9141Q15.8691-12.3242 15.6104-12.583Q15.3516-12.8418 14.9512-12.8418Q14.5605-12.8418 14.3115-12.583Q14.0625-12.3242 14.0625-11.9141L14.0625-7.96875L10.1172-7.96875Q9.70703-7.96875 9.45312-7.71484Q9.19922-7.46094 9.19922-7.05078Z"/>
  </g>
  <text style="stroke:none;fill:black;font-family:sans-serif;font-size:13;font-weight:bold;" transform="matrix(1 0 0 1 263 1953)">Design Variations</text>
  <text style="stroke:none;fill:black;font-family:sans-serif;font-size:13;" transform="matrix(1 0 0 1 263 1971)">Symbols are supported in up to nine weights and three scales.</text>
  <text style="stroke:none;fill:black;font-family:sans-serif;font-size:13;" transform="matrix(1 0 0 1 263 1989)">For optimal layout with text and other symbols, vertically align</text>
  <text style="stroke:none;fill:black;font-family:sans-serif;font-size:13;" transform="matrix(1 0 0 1 263 2007)">symbols with the adjacent text.</text>
  <line style="fill:none;stroke:#00AEEF;stroke-width:0.5;opacity:1.0;" x1="776" x2="776" y1="1919" y2="1933"/>
  <g transform="matrix(1 0 0 1 776 1933)">
   <path d="M3.31055 0.15625Q3.70117 0.15625 3.91602-0.00976562Q4.13086-0.175781 4.26758-0.585938L5.52734-4.0332L11.2891-4.0332L12.5488-0.585938Q12.6855-0.175781 12.9004-0.00976562Q13.1152 0.15625 13.4961 0.15625Q13.8867 0.15625 14.1162-0.0585938Q14.3457-0.273438 14.3457-0.644531Q14.3457-0.869141 14.2383-1.17188L9.6582-13.3691Q9.48242-13.8184 9.17969-14.043Q8.87695-14.2676 8.4082-14.2676Q7.5-14.2676 7.17773-13.3789L2.59766-1.16211Q2.49023-0.859375 2.49023-0.634766Q2.49023-0.263672 2.70996-0.0537109Q2.92969 0.15625 3.31055 0.15625ZM6.00586-5.51758L8.37891-12.0898L8.42773-12.0898L10.8008-5.51758Z"/>
  </g>
  <line style="fill:none;stroke:#00AEEF;stroke-width:0.5;opacity:1.0;" x1="793.197" x2="793.197" y1="1919" y2="1933"/>
  <text style="stroke:none;fill:black;font-family:sans-serif;font-size:13;font-weight:bold;" transform="matrix(1 0 0 1 776 1953)">Margins</text>
  <text style="stroke:none;fill:black;font-family:sans-serif;font-size:13;" transform="matrix(1 0 0 1 776 1971)">Leading and trailing margins on the left and right side of each symbol</text>
  <text style="stroke:none;fill:black;font-family:sans-serif;font-size:13;" transform="matrix(1 0 0 1 776 1989)">can be adjusted by modifying the x-location of the margin guidelines.</text>
  <text style="stroke:none;fill:black;font-family:sans-serif;font-size:13;" transform="matrix(1 0 0 1 776 2007)">Modifications are automatically applied proportionally to all</text>
  <text style="stroke:none;fill:black;font-family:sans-serif;font-size:13;" transform="matrix(1 0 0 1 776 2025)">scales and weights.</text>
  <g transform="matrix(1 0 0 1 1289 1933)">
   <path d="M2.8418 1.86523L4.54102 3.57422Q5.18555 4.22852 5.90332 4.17969Q6.62109 4.13086 7.31445 3.35938L18.0078-8.42773L17.041-9.4043L6.42578 2.27539Q6.16211 2.57812 5.89355 2.61719Q5.625 2.65625 5.27344 2.30469L4.10156 1.14258Q3.75 0.791016 3.79395 0.522461Q3.83789 0.253906 4.14062-0.0195312L15.6152-10.8203L14.6387-11.7871L3.04688-0.898438Q2.30469-0.214844 2.25098 0.498047Q2.19727 1.21094 2.8418 1.86523ZM9.25781-16.3281Q8.94531-16.0254 8.90625-15.6348Q8.86719-15.2441 9.04297-14.9512Q9.21875-14.6777 9.55566-14.541Q9.89258-14.4043 10.3809-14.5215Q11.4746-14.7754 12.5977-14.7314Q13.7207-14.6875 14.7949-13.9844L14.209-12.5293Q13.9551-11.9043 14.0674-11.4404Q14.1797-10.9766 14.5801-10.5664L16.875-8.25195Q17.2363-7.88086 17.5781-7.82227Q17.9199-7.76367 18.3398-7.8418L19.4043-8.03711L20.0684-7.36328L20.0293-6.80664Q20-6.43555 20.1221-6.12305Q20.2441-5.81055 20.6055-5.44922L21.3672-4.70703Q21.7285-4.3457 22.1533-4.33105Q22.5781-4.31641 22.9297-4.66797L25.8398-7.58789Q26.1914-7.93945 26.1816-8.35449Q26.1719-8.76953 25.8105-9.13086L25.0391-9.89258Q24.6875-10.2539 24.3799-10.3857Q24.0723-10.5176 23.7109-10.4883L23.1348-10.4395L22.4902-11.0742L22.7344-12.1973Q22.832-12.6172 22.6953-12.9834Q22.5586-13.3496 22.1191-13.7891L19.9219-15.9766Q18.6719-17.2168 17.2607-17.8369Q15.8496-18.457 14.4189-18.4814Q12.9883-18.5059 11.665-17.959Q10.3418-17.4121 9.25781-16.3281ZM10.752-15.957Q11.6602-16.6211 12.7002-16.9043Q13.7402-17.1875 14.8047-17.085Q15.8691-16.9824 16.8701-16.5137Q17.8711-16.0449 18.7012-15.2051L21.1328-12.793Q21.3086-12.6172 21.3525-12.4512Q21.3965-12.2852 21.3379-12.0312L21.0156-10.5469L22.5195-9.0625L23.5059-9.12109Q23.6914-9.13086 23.7891-9.09668Q23.8867-9.0625 24.0332-8.91602L24.6094-8.33984L22.168-5.89844L21.5918-6.47461Q21.4453-6.62109 21.4062-6.71875Q21.3672-6.81641 21.377-7.01172L21.4453-7.98828L19.9512-9.47266L18.4277-9.21875Q18.1836-9.16992 18.042-9.2041Q17.9004-9.23828 17.7148-9.41406L15.7129-11.416Q15.5176-11.5918 15.4932-11.7529Q15.4688-11.9141 15.5859-12.1875L16.4648-14.2773Q15.293-15.3711 13.8281-15.791Q12.3633-16.2109 10.8398-15.7617Q10.7227-15.7324 10.6885-15.8057Q10.6543-15.8789 10.752-15.957Z"/>
  </g>
  <text style="stroke:none;fill:black;font-family:sans-serif;font-size:13;font-weight:bold;" transform="matrix(1 0 0 1 1289 1953)">Exporting</text>
  <text style="stroke:none;fill:black;font-family:sans-serif;font-size:13;" transform="matrix(1 0 0 1 1289 1971)">Symbols should be outlined when exporting to ensure the</text>
  <text style="stroke:none;fill:black;font-family:sans-serif;font-size:13;" transform="matrix(1 0 0 1 1289 1989)">design is preserved when submitting to Xcode.</text>
  <text id="template-version" style="stroke:none;fill:black;font-family:sans-serif;font-size:13;text-anchor:end;" transform="matrix(1 0 0 1 3036 1933)">Template v.3.0</text>
  <text style="stroke:none;fill:black;font-family:sans-serif;font-size:13;text-anchor:end;" transform="matrix(1 0 0 1 3036 1951)">Requires Xcode 13 or greater</text>
  <text id="descriptive-name" style="stroke:none;fill:black;font-family:sans-serif;font-size:13;text-anchor:end;" transform="matrix(1 0 0 1 3036 1969)">Generated from checkmark.seal</text>
  <text style="stroke:none;fill:black;font-family:sans-serif;font-size:13;text-anchor:end;" transform="matrix(1 0 0 1 3036 1987)">Typeset at 100 points</text>
  <text style="stroke:none;fill:black;font-family:sans-serif;font-size:13;" transform="matrix(1 0 0 1 263 726)">Small</text>
  <text style="stroke:none;fill:black;font-family:sans-serif;font-size:13;" transform="matrix(1 0 0 1 263 1156)">Medium</text>
  <text style="stroke:none;fill:black;font-family:sans-serif;font-size:13;" transform="matrix(1 0 0 1 263 1586)">Large</text>
 </g>
 <g id="Guides">
  <g id="H-reference" style="fill:#27AAE1;stroke:none;" transform="matrix(1 0 0 1 339 696)">
   <path d="M0.993347 0L3.6377 0L29.3282-67.1326L30.0301-67.1326L30.0301-70.459L28.1227-70.459ZM11.6882-24.4797L46.9818-24.4797L46.2311-26.7288L12.4382-26.7288ZM55.1193 0L57.7637 0L30.6381-70.459L29.4327-70.459L29.4327-67.1326Z"/>
  </g>
  <line id="Baseline-S" style="fill:none;stroke:#27AAE1;opacity:1;stroke-width:0.5;" x1="263" x2="3036" y1="696" y2="696"/>
  <line id="Capline-S" style="fill:none;stroke:#27AAE1;opacity:1;stroke-width:0.5;" x1="263" x2="3036" y1="625.541" y2="625.541"/>
  <g id="H-reference" style="fill:#27AAE1;stroke:none;" transform="matrix(1 0 0 1 339 1126)">
   <path d="M0.993347 0L3.6377 0L29.3282-67.1326L30.0301-67.1326L30.0301-70.459L28.1227-70.459ZM11.6882-24.4797L46.9818-24.4797L46.2311-26.7288L12.4382-26.7288ZM55.1193 0L57.7637 0L30.6381-70.459L29.4327-70.459L29.4327-67.1326Z"/>
  </g>
  <line id="Baseline-M" style="fill:none;stroke:#27AAE1;opacity:1;stroke-width:0.5;" x1="263" x2="3036" y1="1126" y2="1126"/>
  <line id="Capline-M" style="fill:none;stroke:#27AAE1;opacity:1;stroke-width:0.5;" x1="263" x2="3036" y1="1055.54" y2="1055.54"/>
  <g id="H-reference" style="fill:#27AAE1;stroke:none;" transform="matrix(1 0 0 1 339 1556)">
   <path d="M0.993347 0L3.6377 0L29.3282-67.1326L30.0301-67.1326L30.0301-70.459L28.1227-70.459ZM11.6882-24.4797L46.9818-24.4797L46.2311-26.7288L12.4382-26.7288ZM55.1193 0L57.7637 0L30.6381-70.459L29.4327-70.459L29.4327-67.1326Z"/>
  </g>
  <line id="Baseline-L" style="fill:none;stroke:#27AAE1;opacity:1;stroke-width:0.5;" x1="263" x2="3036" y1="1556" y2="1556"/>
  <line id="Capline-L" style="fill:none;stroke:#27AAE1;opacity:1;stroke-width:0.5;" x1="263" x2="3036" y1="1485.54" y2="1485.54"/>
  <line id="left-margin-Ultralight-S" style="fill:none;stroke:#00AEEF;stroke-width:0.5;opacity:1.0;" x1="511.41" x2="511.41" y1="600.785" y2="720.121"/>
  <line id="right-margin-Ultralight-S" style="fill:none;stroke:#00AEEF;stroke-width:0.5;opacity:1.0;" x1="608.012" x2="608.012" y1="600.785" y2="720.121"/>
  <line id="left-margin-Regular-S" style="fill:none;stroke:#00AEEF;stroke-width:0.5;opacity:1.0;" x1="1399.14" x2="1399.14" y1="600.785" y2="720.121"/>
  <line id="right-margin-Regular-S" style="fill:none;stroke:#00AEEF;stroke-width:0.5;opacity:1.0;" x1="1500.55" x2="1500.55" y1="600.785" y2="720.121"/>
  <line id="left-margin-Black-S" style="fill:none;stroke:#00AEEF;stroke-width:0.5;opacity:1.0;" x1="2881.45" x2="2881.45" y1="600.785" y2="720.121"/>
  <line id="right-margin-Black-S" style="fill:none;stroke:#00AEEF;stroke-width:0.5;opacity:1.0;" x1="2985.35" x2="2985.35" y1="600.785" y2="720.121"/>
 </g>
 <g id="Symbols">
  <g id="Black-S" transform="matrix(1 0 0 1 2881.45 696)">
   <path class="hierarchical-0:secondary SFSymbolsPreview4D4D4D" d="M29.0527-0.390625L36.8164-0.390625Q37.5-0.390625 37.9883 0.0976562L43.457 5.56641Q47.7051 9.81445 51.9531 9.81445Q56.2012 9.81445 60.4492 5.56641L65.918 0.0976562Q66.4062-0.390625 67.0898-0.390625L74.8535-0.390625Q80.8594-0.390625 83.8623-3.41797Q86.8652-6.44531 86.8652-12.4023L86.8652-20.166Q86.8652-20.8496 87.3535-21.3379L92.8223-26.8066Q97.0703-31.0547 97.0703-35.3027Q97.0703-39.5508 92.8223-43.7988L87.3535-49.2676Q86.8652-49.7559 86.8652-50.4395L86.8652-58.2031Q86.8652-64.209 83.8379-67.2119Q80.8105-70.2148 74.8535-70.2148L67.0898-70.2148Q66.4062-70.2148 65.918-70.7031L60.4492-76.1719Q56.1523-80.4688 51.9775-80.4199Q47.8027-80.3711 43.457-76.123L37.9883-70.7031Q37.5-70.2148 36.8164-70.2148L29.0527-70.2148Q23.0469-70.2148 20.0439-67.2363Q17.041-64.2578 17.041-58.2031L17.041-50.4395Q17.041-49.7559 16.5527-49.2676L11.084-43.7988Q6.83594-39.5508 6.83594-35.3027Q6.83594-31.0547 11.084-26.8066L16.5527-21.3379Q17.041-20.8496 17.041-20.166L17.041-12.4023Q17.041-6.39648 20.0684-3.39355Q23.0957-0.390625 29.0527-0.390625ZM32.1289-11.6211Q29.7363-11.6211 29.0283-12.3291Q28.3203-13.0371 28.2715-15.4297L28.2715-23.9746Q28.2715-25.4883 27.2949-26.4648L21.1914-32.5684Q19.4824-34.2773 19.4824-35.2539Q19.4824-36.2305 21.1914-37.9395L27.2949-44.043Q28.2715-45.0195 28.3203-46.5332L28.3203-55.0781Q28.3203-57.5195 29.0039-58.2031Q29.6875-58.8867 32.1289-58.8867L40.6738-58.9355Q42.1875-58.9355 43.1641-59.9121L49.2676-66.0156Q50.9766-67.7246 51.9287-67.749Q52.8809-67.7734 54.6387-66.0156L60.7422-59.9121Q61.7188-58.9355 63.2324-58.9355L71.7773-58.8867Q74.2188-58.8867 74.9023-58.2031Q75.5859-57.5195 75.5859-55.0781L75.5859-46.5332Q75.6836-45.0195 76.6113-44.043L82.7148-37.9395Q84.4238-36.2305 84.4238-35.2539Q84.4238-34.2773 82.7148-32.5684L76.6113-26.4648Q75.6348-25.4883 75.6348-23.9746L75.5859-15.4297Q75.5859-13.0371 74.9023-12.3291Q74.2188-11.6211 71.7773-11.6211L63.2324-11.5723Q61.7188-11.5723 60.7422-10.5957L54.6387-4.49219Q52.9297-2.7832 51.9531-2.7832Q50.9766-2.7832 49.2676-4.49219L43.1641-10.5957Q42.1875-11.5723 40.6738-11.5723Z"/>
   <path class="hierarchical-1:primary SFSymbolsPreview212121" d="M48.1445-16.9922Q51.1719-16.9922 52.9297-19.6289L68.2129-42.5293Q68.7988-43.3594 69.043-44.1895Q69.2871-45.0195 69.2871-45.752Q69.2871-47.9004 67.7002-49.292Q66.1133-50.6836 64.0137-50.6836Q61.2305-50.6836 59.4238-47.7539L48.1445-29.4922L43.0664-35.1562Q42.2852-35.9863 41.3818-36.4746Q40.4785-36.9629 39.3066-36.9629Q37.207-36.9629 35.6445-35.498Q34.082-34.0332 34.082-31.8848Q34.082-30.0293 35.5957-28.2715L43.2617-19.4824Q44.2383-18.3594 45.4346-17.6758Q46.6309-16.9922 48.1445-16.9922Z"/>
  </g>
  <g id="Regular-S" transform="matrix(1 0 0 1 1399.14 696)">
   <path class="hierarchical-0:secondary SFSymbolsPreview4D4D4D" d="M27.7344-1.75781L35.6934-1.75781Q36.7676-1.75781 37.5-1.02539L43.1641 4.58984Q47.0215 8.44727 50.7324 8.42285Q54.4434 8.39844 58.252 4.58984L63.916-1.02539Q64.6484-1.75781 65.7715-1.75781L73.6816-1.75781Q79.1016-1.75781 81.7383-4.39453Q84.375-7.03125 84.375-12.5L84.375-20.4102Q84.375-21.4844 85.1562-22.2656L90.7227-27.8809Q94.6289-31.7383 94.6045-35.4492Q94.5801-39.1602 90.7227-43.0176L85.1562-48.6328Q84.375-49.4141 84.375-50.4883L84.375-58.3984Q84.375-63.8672 81.7627-66.5039Q79.1504-69.1406 73.6816-69.1406L65.7715-69.1406Q64.6484-69.1406 63.916-69.873L58.252-75.4883Q54.4434-79.3457 50.7324-79.3213Q47.0215-79.2969 43.1641-75.4883L37.5-69.873Q36.7676-69.1406 35.6934-69.1406L27.7344-69.1406Q22.3145-69.1406 19.6777-66.5283Q17.041-63.916 17.041-58.3984L17.041-50.4883Q17.041-49.4141 16.3086-48.6328L10.6934-43.0176Q6.83594-39.1602 6.83594-35.4492Q6.83594-31.7383 10.6934-27.8809L16.3086-22.2656Q17.041-21.4844 17.041-20.4102L17.041-12.5Q17.041-7.03125 19.6777-4.39453Q22.3145-1.75781 27.7344-1.75781ZM27.7344-8.74023Q25.2441-8.74023 24.6094-9.35059Q23.9746-9.96094 23.9746-12.5L23.9746-22.6562Q23.9746-24.4141 22.7539-25.6836L15.5762-32.7637Q13.8184-34.5703 13.8184-35.4492Q13.8184-36.3281 15.5762-38.1348L22.7539-45.2148Q23.9746-46.4844 23.9746-48.2422L23.9746-58.3984Q23.9746-60.9375 24.585-61.5479Q25.1953-62.1582 27.7344-62.1582L37.9395-62.1582Q39.7461-62.1582 40.918-63.4277L48.0469-70.6055Q49.8535-72.3633 50.7324-72.3633Q51.6113-72.3633 53.3691-70.6055L60.498-63.4277Q61.6699-62.1582 63.4766-62.1582L73.6816-62.1582Q76.1719-62.1582 76.8066-61.5479Q77.4414-60.9375 77.4414-58.3984L77.4414-48.2422Q77.4414-46.4844 78.7109-45.2148L85.8398-38.1348Q87.6465-36.3281 87.6465-35.4492Q87.6465-34.5703 85.8398-32.7637L78.7109-25.6836Q77.4414-24.4141 77.4414-22.6562L77.4414-12.5Q77.4414-9.96094 76.8066-9.35059Q76.1719-8.74023 73.6816-8.74023L63.4766-8.74023Q61.6699-8.74023 60.498-7.4707L53.3691-0.292969Q51.6113 1.46484 50.7324 1.46484Q49.8535 1.46484 48.0469-0.292969L40.918-7.4707Q39.7461-8.74023 37.9395-8.74023Z"/>
   <path class="hierarchical-1:primary SFSymbolsPreview212121" d="M46.582-17.2852Q48.7793-17.2852 50.0977-19.3359L66.8945-45.8984Q67.2852-46.5332 67.627-47.2412Q67.9688-47.9492 67.9688-48.7305Q67.9688-50.1953 66.8701-51.0498Q65.7715-51.9043 64.4043-51.9043Q62.5977-51.9043 61.4258-49.9512L46.3867-25.6348L39.6484-34.7168Q38.8672-35.7422 38.0859-36.1084Q37.3047-36.4746 36.4258-36.4746Q35.0098-36.4746 34.0332-35.4492Q33.0566-34.4238 33.0566-33.0078Q33.0566-31.5918 34.0332-30.3223L42.8223-19.3359Q43.6523-18.2129 44.5557-17.749Q45.459-17.2852 46.582-17.2852Z"/>
  </g>
  <g id="Ultralight-S" transform="matrix(1 0 0 1 511.41 696)">
   <path class="hierarchical-0:secondary SFSymbolsPreview4D4D4D" d="M24.2188-4.29688L34.082-4.29688Q35.498-4.29688 36.4746-3.32031L43.5059 3.61328Q46.0938 6.25 48.291 6.25Q50.4883 6.25 53.125 3.61328L60.1562-3.32031Q61.084-4.29688 62.5-4.29688L72.3633-4.29688Q76.123-4.29688 77.6855-5.88379Q79.248-7.4707 79.248-11.1816L79.248-21.0449Q79.248-22.3633 80.2246-23.4375L87.1582-30.4199Q89.7461-33.0566 89.7461-35.2539Q89.7461-37.4512 87.1582-40.0879L80.2246-47.0703Q79.248-48.1445 79.248-49.4629L79.248-59.3262Q79.248-63.0371 77.6855-64.624Q76.123-66.2109 72.3633-66.2109L62.5-66.2109Q61.084-66.2109 60.1562-67.1875L53.125-74.1211Q50.4883-76.7578 48.291-76.7822Q46.0938-76.8066 43.457-74.1211L36.4746-67.1875Q35.498-66.2109 34.082-66.2109L24.2188-66.2109Q20.5566-66.2109 18.9697-64.624Q17.3828-63.0371 17.3828-59.3262L17.3828-49.4629Q17.3828-48.1445 16.4062-47.0703L9.42383-40.0879Q6.83594-37.4512 6.83594-35.2539Q6.83594-33.0566 9.42383-30.4199L16.4062-23.4375Q17.3828-22.3633 17.3828-21.0449L17.3828-11.1816Q17.3828-7.4707 18.9697-5.88379Q20.5566-4.29688 24.2188-4.29688ZM24.2188-6.49414Q21.4844-6.49414 20.5322-7.44629Q19.5801-8.39844 19.5801-11.1816L19.5801-21.9727Q19.5801-23.3887 18.5547-24.3652L10.9863-31.9824Q8.98438-33.9355 8.98438-35.2539Q8.98438-36.5723 10.9863-38.5254L18.5547-46.1426Q19.5801-47.1191 19.5801-48.5352L19.5801-59.3262Q19.5801-62.1094 20.5078-63.0615Q21.4355-64.0137 24.2188-64.0137L35.0098-64.0137Q36.4258-64.0137 37.4023-64.9902L45.0195-72.6074Q46.9727-74.5605 48.291-74.5605Q49.6094-74.5605 51.6113-72.6074L59.1797-64.9902Q60.1562-64.0137 61.6211-64.0137L72.3633-64.0137Q75.1465-64.0137 76.123-63.0615Q77.0996-62.1094 77.0996-59.3262L77.0996-48.5352Q77.0996-47.1191 78.0273-46.1426L85.6445-38.5254Q87.5977-36.5723 87.5977-35.2539Q87.5977-33.9355 85.6445-31.9824L78.0273-24.3652Q77.0996-23.3887 77.0996-21.9727L77.0996-11.1816Q77.0996-8.39844 76.123-7.44629Q75.1465-6.49414 72.3633-6.49414L61.6211-6.49414Q60.1562-6.49414 59.1797-5.51758L51.6113 2.09961Q49.6094 4.05273 48.291 4.05273Q46.9727 4.05273 45.0195 2.09961L37.4023-5.51758Q36.4258-6.49414 35.0098-6.49414Z"/>
   <path class="hierarchical-1:primary SFSymbolsPreview212121" d="M44.2383-17.1387Q44.8242-17.1387 45.3613-17.7246L65.8691-49.5117Q65.9668-49.6582 66.04-49.8779Q66.1133-50.0977 66.1133-50.293Q66.1133-50.6836 65.7471-51.0254Q65.3809-51.3672 64.9902-51.3672Q64.4531-51.3672 63.9648-50.7812L44.1895-20.1172L33.1055-32.9102Q32.8613-33.2031 32.6172-33.3252Q32.373-33.4473 32.0801-33.4473Q31.6406-33.4473 31.2988-33.1299Q30.957-32.8125 30.957-32.3242Q30.957-31.9336 31.3477-31.3965L43.1152-17.7246Q43.3594-17.4316 43.6035-17.2852Q43.8477-17.1387 44.2383-17.1387Z"/>
  </g>
 </g>
</svg>
